<svg version="1.2" baseProfile="tiny-ps" xmlns="http://www.w3.org/2000/svg" viewBox="0 0 99 99" width="99" height="99">
	<title>HomePage</title>
	<defs>
		<linearGradient id="grd1" gradientUnits="userSpaceOnUse"  x1="36.044" y1="30.811" x2="36.044" y2="34.629">
			<stop offset="0" stop-color="#49d695"  />
			<stop offset="1" stop-color="#114b8c"  />
		</linearGradient>
		<linearGradient id="grd2" gradientUnits="userSpaceOnUse"  x1="40.156" y1="14.024" x2="40.156" y2="98.166">
			<stop offset="0" stop-color="#49d695"  />
			<stop offset="1" stop-color="#114b8c"  />
		</linearGradient>
		<linearGradient id="grd3" gradientUnits="userSpaceOnUse"  x1="76.204" y1="12.895" x2="76.204" y2="21.836">
			<stop offset="0" stop-color="#49d695"  />
			<stop offset="1" stop-color="#114b8c"  />
		</linearGradient>
		<linearGradient id="grd4" gradientUnits="userSpaceOnUse"  x1="68.956" y1="22.703" x2="68.956" y2="26.521">
			<stop offset="0" stop-color="#49d695"  />
			<stop offset="1" stop-color="#114b8c"  />
		</linearGradient>
		<linearGradient id="grd5" gradientUnits="userSpaceOnUse"  x1="58.405" y1="5.878" x2="58.405" y2="16.712">
			<stop offset="0" stop-color="#49d695"  />
			<stop offset="1" stop-color="#114b8c"  />
		</linearGradient>
		<linearGradient id="grd6" gradientUnits="userSpaceOnUse"  x1="82.12" y1="32.955" x2="82.12" y2="36.773">
			<stop offset="0" stop-color="#49d695"  />
			<stop offset="1" stop-color="#114b8c"  />
		</linearGradient>
		<linearGradient id="grd7" gradientUnits="userSpaceOnUse"  x1="83.006" y1="76.543" x2="83.006" y2="87.997">
			<stop offset="0" stop-color="#49d695"  />
			<stop offset="1" stop-color="#114b8c"  />
		</linearGradient>
		<linearGradient id="grd8" gradientUnits="userSpaceOnUse"  x1="83.006" y1="66.374" x2="83.006" y2="98.166">
			<stop offset="0" stop-color="#49d695"  />
			<stop offset="1" stop-color="#114b8c"  />
		</linearGradient>
		<linearGradient id="grd9" gradientUnits="userSpaceOnUse"  x1="91.175" y1="0.423" x2="91.175" y2="17.35">
			<stop offset="0" stop-color="#49d695"  />
			<stop offset="1" stop-color="#114b8c"  />
		</linearGradient>
		<linearGradient id="grd10" gradientUnits="userSpaceOnUse"  x1="13.475" y1="0.423" x2="13.475" y2="23.715">
			<stop offset="0" stop-color="#49d695"  />
			<stop offset="1" stop-color="#114b8c"  />
		</linearGradient>
		<linearGradient id="grd11" gradientUnits="userSpaceOnUse"  x1="13.357" y1="6.319" x2="13.357" y2="17.819">
			<stop offset="0" stop-color="#49d695"  />
			<stop offset="1" stop-color="#114b8c"  />
		</linearGradient>
		<linearGradient id="grd12" gradientUnits="userSpaceOnUse"  x1="12.796" y1="42.034" x2="12.796" y2="45.852">
			<stop offset="0" stop-color="#49d695"  />
			<stop offset="1" stop-color="#114b8c"  />
		</linearGradient>
		<linearGradient id="grd13" gradientUnits="userSpaceOnUse"  x1="8.135" y1="36.742" x2="8.135" y2="41.775">
			<stop offset="0" stop-color="#49d695"  />
			<stop offset="1" stop-color="#114b8c"  />
		</linearGradient>
		<linearGradient id="grd14" gradientUnits="userSpaceOnUse"  x1="3.392" y1="42.034" x2="3.392" y2="45.852">
			<stop offset="0" stop-color="#49d695"  />
			<stop offset="1" stop-color="#114b8c"  />
		</linearGradient>
		<linearGradient id="grd15" gradientUnits="userSpaceOnUse"  x1="8.135" y1="46.049" x2="8.135" y2="51.261">
			<stop offset="0" stop-color="#49d695"  />
			<stop offset="1" stop-color="#114b8c"  />
		</linearGradient>
	</defs>
	<style>
		tspan { white-space:pre }
		.shp0 { fill: url(#grd1) } 
		.shp1 { fill: url(#grd2) } 
		.shp2 { fill: url(#grd3) } 
		.shp3 { fill: url(#grd4) } 
		.shp4 { fill: url(#grd5) } 
		.shp5 { fill: url(#grd6) } 
		.shp6 { fill: url(#grd7) } 
		.shp7 { fill: url(#grd8) } 
		.shp8 { fill: url(#grd9) } 
		.shp9 { fill: url(#grd10) } 
		.shp10 { fill: url(#grd11) } 
		.shp11 { fill: url(#grd12) } 
		.shp12 { fill: url(#grd13) } 
		.shp13 { fill: url(#grd14) } 
		.shp14 { fill: url(#grd15) } 
	</style>
	<g id="HomePage">
		<g id="Group 685">
			<g id="Group 684">
				<g id="digital-marketing" style="opacity: 0.329">
					<g id="Group 432">
						<g id="Group 431">
							<path id="Path 12293" class="shp0" d="M37.39 31.37C37.04 31.02 36.55 30.81 36.04 30.81C35.54 30.81 35.05 31.02 34.69 31.37C34.34 31.73 34.13 32.22 34.13 32.72C34.13 33.22 34.34 33.71 34.69 34.07C35.05 34.42 35.54 34.63 36.04 34.63C36.55 34.63 37.04 34.42 37.39 34.07C37.75 33.71 37.95 33.22 37.95 32.72C37.95 32.22 37.75 31.73 37.39 31.37Z" />
						</g>
					</g>
					<g id="Group 434">
						<g id="Group 433">
							<path id="Path 12294" fill-rule="evenodd" class="shp1" d="M79.4 58.52C79.28 59.14 78.86 59.66 78.28 59.91L37.02 77.5L47.1 87.57C47.85 88.32 47.85 89.53 47.1 90.27L39.77 97.61C39.39 97.98 38.91 98.17 38.42 98.17C37.93 98.17 37.44 97.98 37.07 97.61L26.34 86.88L24.7 88.51C22.07 91.15 18.56 92.6 14.83 92.6C11.11 92.6 7.6 91.15 4.96 88.51C2.33 85.87 0.88 82.37 0.88 78.64C0.88 74.91 2.33 71.41 4.96 68.77L15.02 58.71L33.55 15.19C33.8 14.6 34.32 14.18 34.95 14.06C35.57 13.94 36.21 14.14 36.66 14.58L50.24 28.16C52.04 26.91 54.18 26.22 56.42 26.22C59.31 26.22 62.02 27.35 64.07 29.39C67.83 33.15 68.23 39.01 65.3 43.22L78.88 56.8C79.33 57.25 79.52 57.89 79.4 58.52ZM74.18 57.5L35.96 19.28L18.89 59.36L34.11 74.59L62.93 62.3L39.71 39.09C38.97 38.35 38.97 37.14 39.71 36.39C40.46 35.65 41.67 35.65 42.41 36.39L66.6 60.57C66.63 60.61 66.67 60.65 66.7 60.69L74.18 57.5ZM30.97 76.84L16.9 62.78L16.63 62.5L7.66 71.47C5.75 73.39 4.69 75.93 4.69 78.64C4.69 81.35 5.75 83.9 7.66 85.81C9.58 87.73 12.13 88.78 14.83 88.78C17.54 88.78 20.09 87.73 22 85.81L30.97 76.84ZM33.67 79.54L29.04 84.18L38.42 93.56L43.05 88.92L33.67 79.54ZM53.01 30.93L62.53 40.45C64.02 37.79 63.63 34.35 61.37 32.09C60.05 30.77 58.29 30.04 56.42 30.04C55.2 30.04 54.04 30.35 53.01 30.93Z" />
						</g>
					</g>
					<g id="Group 436">
						<g id="Group 435">
							<path id="Path 12295" class="shp2" d="M80.12 13.45C79.37 12.71 78.16 12.71 77.42 13.45L72.29 18.58C71.55 19.32 71.55 20.53 72.29 21.28C72.66 21.65 73.15 21.84 73.64 21.84C74.13 21.84 74.62 21.65 74.99 21.28L80.12 16.15C80.86 15.41 80.86 14.2 80.12 13.45Z" />
						</g>
					</g>
					<g id="Group 438">
						<g id="Group 437">
							<path id="Path 12296" class="shp3" d="M70.31 23.26C69.95 22.91 69.46 22.7 68.96 22.7C68.45 22.7 67.96 22.91 67.61 23.26C67.25 23.62 67.05 24.11 67.05 24.61C67.05 25.11 67.25 25.61 67.61 25.96C67.96 26.32 68.45 26.52 68.96 26.52C69.46 26.52 69.95 26.32 70.31 25.96C70.66 25.61 70.86 25.11 70.86 24.61C70.86 24.11 70.66 23.62 70.31 23.26Z" />
						</g>
					</g>
					<g id="Group 440">
						<g id="Group 439">
							<path id="Path 12297" class="shp4" d="M58.4 5.88C57.35 5.88 56.5 6.73 56.5 7.79L56.5 14.8C56.5 15.86 57.35 16.71 58.4 16.71C59.46 16.71 60.31 15.86 60.31 14.8L60.31 7.79C60.31 6.73 59.46 5.88 58.4 5.88Z" />
						</g>
					</g>
					<g id="Group 442">
						<g id="Group 441">
							<path id="Path 12298" class="shp5" d="M85.74 32.95L78.49 32.95C77.44 32.95 76.59 33.81 76.59 34.86C76.59 35.92 77.44 36.77 78.49 36.77L85.74 36.77C86.8 36.77 87.65 35.92 87.65 34.86C87.65 33.81 86.8 32.95 85.74 32.95Z" />
						</g>
					</g>
					<g id="Group 444">
						<g id="Group 443">
							<path id="Path 12299" fill-rule="evenodd" class="shp6" d="M88.73 82.27C88.73 85.43 86.16 88 83.01 88C79.85 88 77.28 85.43 77.28 82.27C77.28 79.11 79.85 76.54 83.01 76.54C86.16 76.54 88.73 79.11 88.73 82.27ZM84.91 82.27C84.91 81.22 84.06 80.36 83.01 80.36C81.95 80.36 81.1 81.22 81.1 82.27C81.1 83.32 81.95 84.18 83.01 84.18C84.06 84.18 84.91 83.32 84.91 82.27Z" />
						</g>
					</g>
					<g id="Group 446">
						<g id="Group 445">
							<path id="Path 12300" fill-rule="evenodd" class="shp7" d="M98.36 87.47L95.18 92.97C94.73 93.75 93.79 94.11 92.94 93.83L90.3 92.98C89.77 93.34 89.21 93.67 88.63 93.95L88.05 96.66C87.86 97.54 87.09 98.17 86.19 98.17L79.83 98.17C78.93 98.17 78.15 97.54 77.96 96.66L77.38 93.95C76.8 93.67 76.24 93.34 75.71 92.98L73.07 93.83C72.22 94.11 71.28 93.75 70.83 92.97L67.65 87.47C67.2 86.69 67.35 85.7 68.02 85.09L70.08 83.23C70.06 82.91 70.05 82.59 70.05 82.27C70.05 81.95 70.06 81.63 70.08 81.31L68.02 79.45C67.35 78.84 67.2 77.85 67.65 77.07L70.83 71.57C71.28 70.79 72.22 70.43 73.07 70.71L75.71 71.56C76.24 71.2 76.8 70.87 77.38 70.59L77.96 67.88C78.15 67 78.93 66.37 79.83 66.37L86.19 66.37C87.09 66.37 87.86 67 88.05 67.88L88.63 70.59C89.21 70.87 89.77 71.2 90.3 71.56L92.94 70.71C93.79 70.43 94.73 70.79 95.18 71.57L98.36 77.07C98.81 77.85 98.66 78.84 97.99 79.45L95.93 81.31C95.95 81.63 95.97 81.95 95.97 82.27C95.97 82.59 95.95 82.91 95.93 83.23L97.99 85.09C98.66 85.7 98.81 86.69 98.36 87.47ZM94.28 86.89L92.64 85.41C92.17 84.98 91.94 84.33 92.04 83.7C92.11 83.23 92.15 82.75 92.15 82.27C92.15 81.79 92.11 81.31 92.04 80.84C91.94 80.21 92.17 79.56 92.64 79.13L94.28 77.65L92.64 74.81L90.54 75.49C89.93 75.69 89.26 75.57 88.75 75.16C88.01 74.56 87.18 74.08 86.29 73.73C85.68 73.5 85.24 72.98 85.1 72.35L84.64 70.19L81.37 70.19L80.91 72.35C80.77 72.98 80.33 73.5 79.73 73.73C78.83 74.08 78 74.56 77.26 75.16C76.76 75.57 76.08 75.69 75.47 75.49L73.37 74.81L71.73 77.65L73.37 79.13C73.85 79.56 74.07 80.21 73.98 80.84C73.9 81.31 73.86 81.79 73.86 82.27C73.86 82.75 73.9 83.23 73.98 83.7C74.07 84.33 73.85 84.98 73.37 85.41L71.73 86.89L73.37 89.72L75.47 89.05C76.08 88.85 76.76 88.97 77.26 89.38C78 89.98 78.83 90.46 79.73 90.81C80.33 91.04 80.77 91.56 80.91 92.19L81.37 94.35L84.64 94.35L85.1 92.19C85.24 91.56 85.68 91.04 86.29 90.81C87.18 90.46 88.01 89.98 88.75 89.38C89.26 88.97 89.93 88.85 90.54 89.05L92.65 89.72L94.28 86.89Z" />
						</g>
					</g>
					<g id="Group 448">
						<g id="Group 447">
							<path id="Path 12301" fill-rule="evenodd" class="shp8" d="M97.45 17.2C96.48 17.61 95.36 17.15 94.95 16.18L94.26 14.54L88.09 14.54L87.4 16.18C87.09 16.91 86.38 17.35 85.64 17.35C85.39 17.35 85.14 17.3 84.9 17.2C83.93 16.79 83.47 15.67 83.88 14.7L89.42 1.59C89.72 0.88 90.41 0.42 91.18 0.42C91.94 0.42 92.64 0.88 92.93 1.59L98.47 14.7C98.88 15.67 98.42 16.79 97.45 17.2ZM89.7 10.72L92.65 10.72L91.18 7.24L89.7 10.72Z" />
						</g>
					</g>
					<g id="Group 450">
						<g id="Group 449">
							<path id="Path 12302" fill-rule="evenodd" class="shp9" d="M26.07 5.05L26.07 19.09C26.07 21.64 24 23.71 21.45 23.71L5.5 23.71C2.95 23.71 0.88 21.64 0.88 19.09L0.88 5.05C0.88 2.5 2.95 0.42 5.5 0.42L21.45 0.42C24 0.42 26.07 2.5 26.07 5.05ZM22.26 19.09L22.26 5.05C22.26 4.6 21.89 4.24 21.45 4.24L5.5 4.24C5.06 4.24 4.69 4.6 4.69 5.05L4.69 19.09C4.69 19.53 5.06 19.9 5.5 19.9L21.45 19.9C21.89 19.9 22.26 19.53 22.26 19.09L22.26 19.09Z" />
						</g>
					</g>
					<g id="Group 452">
						<g id="Group 451">
							<path id="Path 12303" fill-rule="evenodd" class="shp10" d="M18.88 12.07C18.88 13.54 18.12 14.85 16.84 15.59L13.94 17.27C13.3 17.64 12.6 17.82 11.9 17.82C11.21 17.82 10.51 17.64 9.87 17.27C8.6 16.53 7.84 15.22 7.84 13.75L7.84 10.39C7.84 8.92 8.6 7.6 9.87 6.87C11.14 6.13 12.66 6.14 13.94 6.87L16.84 8.55C18.12 9.28 18.88 10.6 18.88 12.07ZM15.06 12.07C15.06 11.93 14.97 11.87 14.93 11.85L12.03 10.18C12.01 10.16 11.96 10.14 11.91 10.14C11.87 10.14 11.83 10.15 11.78 10.18C11.66 10.25 11.66 10.35 11.66 10.39L11.66 13.75C11.66 13.79 11.66 13.89 11.78 13.96C11.9 14.03 11.99 13.98 12.03 13.96L14.93 12.28C14.97 12.26 15.06 12.21 15.06 12.07Z" />
						</g>
					</g>
					<g id="Group 454">
						<g id="Group 453">
							<path id="Path 12304" class="shp11" d="M13.48 42.03L12.11 42.03C11.05 42.03 10.2 42.89 10.2 43.94C10.2 45 11.05 45.85 12.11 45.85L13.48 45.85C14.54 45.85 15.39 45 15.39 43.94C15.39 42.89 14.54 42.03 13.48 42.03Z" />
						</g>
					</g>
					<g id="Group 456">
						<g id="Group 455">
							<path id="Path 12305" class="shp12" d="M8.13 36.74C7.08 36.74 6.23 37.6 6.23 38.65L6.23 39.87C6.23 40.92 7.08 41.77 8.13 41.77C9.19 41.77 10.04 40.92 10.04 39.87L10.04 38.65C10.04 37.6 9.19 36.74 8.13 36.74Z" />
						</g>
					</g>
					<g id="Group 458">
						<g id="Group 457">
							<path id="Path 12306" class="shp13" d="M4 42.03L2.78 42.03C1.73 42.03 0.88 42.89 0.88 43.94C0.88 45 1.73 45.85 2.78 45.85L4 45.85C5.05 45.85 5.91 45 5.91 43.94C5.91 42.89 5.05 42.03 4 42.03Z" />
						</g>
					</g>
					<g id="Group 460">
						<g id="Group 459">
							<path id="Path 12307" class="shp14" d="M8.13 46.05C7.08 46.05 6.23 46.9 6.23 47.96L6.23 49.35C6.23 50.41 7.08 51.26 8.13 51.26C9.19 51.26 10.04 50.41 10.04 49.35L10.04 47.96C10.04 46.9 9.19 46.05 8.13 46.05Z" />
						</g>
					</g>
				</g>
			</g>
		</g>
	</g>
</svg>