<svg version="1.2" baseProfile="tiny-ps" xmlns="http://www.w3.org/2000/svg" viewBox="0 0 181 58" width="181" height="58">
	<title>HomePage</title>
	<defs>
		<linearGradient id="grd1" gradientUnits="userSpaceOnUse"  x1="178.354" y1="31.249" x2="-6.619" y2="44.198">
			<stop offset="0" stop-color="#5bdb5b"  />
			<stop offset="0.251" stop-color="#49d695"  />
			<stop offset="0.656" stop-color="#0d569e"  />
			<stop offset="1" stop-color="#114b8c"  />
		</linearGradient>
	</defs>
	<style>
		tspan { white-space:pre }
		.shp0 { fill: url(#grd1) } 
	</style>
	<g id="HomePage">
		<g id="Group 685">
			<g id="right-drawn-arrow">
				<path id="Path 12275" fill-rule="evenodd" class="shp0" d="M0.24 46.38C3.89 37.2 6.52 27.35 12.32 19.09C13.13 17.93 15.24 17.71 15.58 19.4C16.55 23.04 17.94 26.52 19.05 30.01C57.53 -6.28 132.43 -10.26 173.06 25.44C174.94 26.64 176.95 27.7 178.69 29.05C179.42 29.73 179.45 30.58 178.9 31.16C179.34 31.57 179.78 31.98 180.22 32.39C181.25 33.62 179.75 35.23 178.58 34.14C176.1 31.83 173.35 29.81 170.74 27.93C147.44 15.77 119.97 14.21 94.05 16.56C71.51 18.51 40.24 21.61 24.92 40.68L24.78 40.83C26.49 45.43 26.53 50.66 26.83 55.59C26.86 56.44 25.77 57.61 24.77 57.22C16.91 54.54 8.64 52.29 1.03 48.75C-0.12 48.23 -0.16 47.1 0.24 46.38ZM4.04 45.82C10.21 48.56 16.77 50.58 23.21 52.75C22.93 48.67 22.37 44.59 21.66 40.37C21.33 38.97 23.55 37.76 24.31 39.29C29.19 29.08 40.88 23.85 51.23 20.65C64.52 16.64 78.15 14.31 92.1 13.1C111.12 11.42 132.02 11.24 151.13 16.2C109.07 -3.34 58.83 2.86 20.4 32.36C19.84 32.67 19.28 32.69 18.84 32.28C18.29 32.58 17.29 32.48 16.84 31.5C15.9 28.71 14.54 26.36 13.47 23.71C9.46 30.64 7.04 38.5 4.04 45.82Z" />
			</g>
		</g>
	</g>
</svg>