<svg version="1.2" baseProfile="tiny-ps" xmlns="http://www.w3.org/2000/svg" viewBox="0 0 100 100" width="100" height="100">
	<title>HomePage</title>
	<defs>
		<linearGradient id="grd1" gradientUnits="userSpaceOnUse"  x1="30.34" y1="24.17" x2="30.34" y2="36.51">
			<stop offset="0" stop-color="#5bdb5b"  />
			<stop offset="0.164" stop-color="#49d695"  />
			<stop offset="0.395" stop-color="#49d695"  />
			<stop offset="0.606" stop-color="#0179d4"  />
			<stop offset="0.85" stop-color="#0d569e"  />
			<stop offset="1" stop-color="#114b8c"  />
		</linearGradient>
		<linearGradient id="grd2" gradientUnits="userSpaceOnUse"  x1="49.879" y1="18" x2="49.879" y2="81.758">
			<stop offset="0" stop-color="#5bdb5b"  />
			<stop offset="0.164" stop-color="#49d695"  />
			<stop offset="0.395" stop-color="#49d695"  />
			<stop offset="0.606" stop-color="#0179d4"  />
			<stop offset="0.85" stop-color="#0d569e"  />
			<stop offset="1" stop-color="#114b8c"  />
		</linearGradient>
	</defs>
	<style>
		tspan { white-space:pre }
		.shp0 { fill: #114b8c } 
		.shp1 { fill: url(#grd1) } 
		.shp2 { fill: url(#grd2) } 
	</style>
	<g id="HomePage">
		<g id="Group 691">
			<g id="Group 690">
				<g id="Group 257">
					<g id="Group 254">
						<g id="Group 252">
							<path id="Rectangle 3" class="shp0" d="M7 0L93 0C96.87 0 100 3.13 100 7L100 93C100 96.87 96.87 100 93 100L7 100C3.13 100 0 96.87 0 93L0 7C0 3.13 3.13 0 7 0Z" />
							<g id="interactive">
								<path id="Path 12252" fill-rule="evenodd" class="shp1" d="M36.51 30.34C36.51 33.74 33.74 36.51 30.34 36.51C26.94 36.51 24.17 33.74 24.17 30.34C24.17 26.94 26.94 24.17 30.34 24.17C33.74 24.17 36.51 26.94 36.51 30.34ZM34.45 30.34C34.45 28.07 32.61 26.23 30.34 26.23C28.07 26.23 26.23 28.07 26.23 30.34C26.23 32.61 28.07 34.45 30.34 34.45C32.61 34.45 34.45 32.61 34.45 30.34Z" />
								<path id="Path 12253" fill-rule="evenodd" class="shp2" d="M78.67 50.91C80.37 50.91 81.76 52.29 81.76 53.99C81.76 55.69 80.37 57.08 78.67 57.08C77.33 57.08 76.2 56.21 75.78 55.02L61.82 55.02L51.57 45.51C51.36 45.67 51.14 45.82 50.91 45.95L50.91 53.15C51.23 53.04 51.57 52.96 51.94 52.96C53.64 52.96 55.02 54.35 55.02 56.05L55.02 56.24C55.34 56.12 55.69 56.05 56.05 56.05C57.47 56.05 58.66 57.02 59.01 58.33C59.37 58.19 59.76 58.11 60.16 58.11C61.86 58.11 63.25 59.49 63.25 61.19L63.25 72.09C63.25 73.25 62.85 74.39 62.12 75.3L59.81 78.19C59.37 78.73 59.13 79.42 59.13 80.12L59.13 81.76L42.68 81.76L42.68 80.12C42.68 79.42 42.44 78.73 42 78.19L39.46 75.01C38.91 74.33 38.55 73.51 38.4 72.64L36.55 61.54C36.53 61.37 36.51 61.19 36.51 61L36.51 60.35C36.51 58.54 37.98 57.08 39.78 57.08L42.51 57.08L44.35 67.21C44.4 67.5 44.54 67.76 44.74 67.96L44.74 46.89L39.11 55.02L23.98 55.02C23.56 56.21 22.42 57.08 21.09 57.08C19.38 57.08 18 55.69 18 53.99C18 52.29 19.38 50.91 21.09 50.91C22.42 50.91 23.56 51.77 23.98 52.96L26.23 52.96L26.23 48.85L28.28 48.85L28.28 52.96L30.34 52.96L30.34 44.74L32.4 44.74L32.4 52.96L34.45 52.96L34.45 46.79L36.51 46.79L36.51 52.96L38.03 52.96L43.52 45.03C42.35 43.89 41.65 42.32 41.65 40.62C41.65 37.96 43.35 35.7 45.71 34.83L44.94 31.37L42.68 31.37L42.68 33.14L39.92 34.06C39.87 34.2 39.81 34.34 39.74 34.49L41.04 37.09L37.09 41.04L34.49 39.74C34.34 39.81 34.2 39.87 34.06 39.92L33.14 42.68L27.54 42.68L26.62 39.92C26.48 39.87 26.34 39.81 26.19 39.74L23.59 41.04L19.63 37.09L20.94 34.49C20.87 34.34 20.81 34.2 20.76 34.06L18 33.14L18 27.54L20.76 26.62C20.81 26.48 20.87 26.34 20.94 26.19L19.64 23.59L23.59 19.64L26.19 20.94C26.34 20.87 26.48 20.81 26.62 20.76L27.54 18L33.14 18L34.06 20.76C34.2 20.81 34.34 20.87 34.49 20.94L37.09 19.63L41.05 23.59L39.74 26.19C39.81 26.34 39.87 26.48 39.92 26.62L42.68 27.54L42.68 29.31L46.59 29.31L47.73 34.46C47.76 34.46 47.79 34.45 47.82 34.45C48.79 34.45 49.71 34.69 50.53 35.09L57.65 27.26L61.24 27.26C61.76 22.07 66.15 18 71.47 18C77.14 18 81.76 22.61 81.76 28.28C81.76 33.95 77.14 38.57 71.47 38.57C66.15 38.57 61.76 34.5 61.24 29.31L58.56 29.31L52.21 36.3C53.31 37.41 53.99 38.94 53.99 40.62C53.99 41.85 53.63 43.02 52.98 44.01L62.62 52.96L63.25 52.96L63.25 46.79L65.3 46.79L65.3 52.96L67.36 52.96L67.36 48.85L69.42 48.85L69.42 52.96L71.47 52.96L71.47 44.74L73.53 44.74L73.53 52.96L75.78 52.96C76.2 51.77 77.33 50.91 78.67 50.91ZM63.25 28.28C63.25 29.41 63.48 30.49 63.89 31.47L65.7 30.43C65.45 29.76 65.3 29.04 65.3 28.28C65.3 27.53 65.45 26.81 65.7 26.14L63.89 25.09C63.48 26.07 63.25 27.15 63.25 28.28ZM67.36 28.28C67.36 30.55 69.21 32.4 71.47 32.4C73.74 32.4 75.59 30.55 75.59 28.28C75.59 26.01 73.74 24.17 71.47 24.17C69.21 24.17 67.36 26.01 67.36 28.28ZM79.7 28.28C79.7 27.15 79.47 26.07 79.06 25.09L77.25 26.14C77.5 26.81 77.64 27.53 77.64 28.28C77.64 29.04 77.5 29.76 77.25 30.43L79.06 31.47C79.47 30.49 79.7 29.41 79.7 28.28ZM64.93 33.25C66.24 34.97 68.2 36.16 70.45 36.44L70.45 34.36C68.96 34.11 67.65 33.33 66.72 32.21L64.93 33.25ZM72.5 36.44C74.75 36.16 76.71 34.97 78.02 33.25L76.23 32.21C75.3 33.33 73.99 34.11 72.5 34.36L72.5 36.44L72.5 36.44ZM78.02 23.32C76.71 21.6 74.75 20.41 72.5 20.13L72.5 22.21C73.99 22.46 75.3 23.24 76.23 24.35L78.02 23.32ZM70.45 20.13C68.2 20.41 66.24 21.6 64.93 23.32L66.72 24.35C67.65 23.24 68.96 22.46 70.45 22.21L70.45 20.13ZM40.63 31.65L40.63 29.03L38.31 28.26L38.15 27.77C38.03 27.39 37.87 27.02 37.68 26.65L37.45 26.19L38.54 24L36.68 22.14L34.5 23.23L34.04 23C33.67 22.81 33.29 22.65 32.92 22.53L32.43 22.37L31.66 20.06L29.03 20.06L28.25 22.37L27.76 22.53C27.39 22.65 27.02 22.81 26.65 23L26.18 23.23L24 22.14L22.14 24L23.23 26.18L23 26.64C22.81 27.01 22.65 27.39 22.53 27.76L22.37 28.25L20.06 29.02L20.06 31.65L22.37 32.43L22.53 32.92C22.65 33.29 22.81 33.66 23 34.03L23.23 34.5L22.14 36.68L24 38.54L26.18 37.45L26.64 37.68C27.02 37.87 27.39 38.03 27.76 38.15L28.25 38.31L29.02 40.62L31.66 40.62L32.43 38.31L32.92 38.15C33.28 38.03 33.66 37.87 34.03 37.68L34.5 37.45L36.68 38.54L38.54 36.68L37.45 34.5L37.68 34.03C37.87 33.66 38.03 33.29 38.15 32.92L38.31 32.43L40.62 31.65L40.63 31.65ZM22.11 53.99C22.11 53.43 21.65 52.96 21.09 52.96C20.52 52.96 20.06 53.43 20.06 53.99C20.06 54.56 20.52 55.02 21.09 55.02C21.65 55.02 22.11 54.56 22.11 53.99ZM47.82 36.51C45.55 36.51 43.71 38.35 43.71 40.62C43.71 41.67 44.1 42.64 44.77 43.38C44.94 41.84 46.23 40.62 47.82 40.62C49.41 40.62 50.71 41.83 50.87 43.38C51.54 42.64 51.94 41.66 51.94 40.62C51.94 38.35 50.09 36.51 47.82 36.51ZM51.94 55.02C51.37 55.02 50.91 55.48 50.91 56.05L50.91 68.39L48.85 68.39L48.85 43.71C48.85 43.14 48.39 42.68 47.82 42.68C47.26 42.68 46.79 43.14 46.79 43.71L46.79 70.45L45.77 70.45C44.08 70.45 42.63 69.24 42.33 67.58L40.79 59.13L39.78 59.13C39.11 59.13 38.57 59.68 38.57 60.35L38.57 61C38.57 61.07 38.57 61.14 38.58 61.2L40.43 72.31C40.52 72.83 40.74 73.32 41.07 73.73L43.61 76.9C44.25 77.71 44.64 78.69 44.72 79.7L57.1 79.7C57.18 78.69 57.56 77.71 58.2 76.9L60.52 74.02C60.95 73.47 61.19 72.79 61.19 72.09L61.19 61.19C61.19 60.62 60.73 60.16 60.16 60.16C59.6 60.16 59.13 60.62 59.13 61.19L59.13 68.39L57.08 68.39L57.08 59.13C57.08 58.57 56.62 58.11 56.05 58.11C55.48 58.11 55.02 58.57 55.02 59.13L55.02 68.39L52.96 68.39L52.96 56.05C52.96 55.48 52.5 55.02 51.94 55.02ZM79.7 53.99C79.7 53.43 79.24 52.96 78.67 52.96C78.11 52.96 77.64 53.43 77.64 53.99C77.64 54.56 78.11 55.02 78.67 55.02C79.24 55.02 79.7 54.56 79.7 53.99Z" />
							</g>
						</g>
					</g>
				</g>
			</g>
		</g>
	</g>
</svg>