<svg version="1.2" baseProfile="tiny-ps" xmlns="http://www.w3.org/2000/svg" viewBox="0 0 172 46" width="172" height="46">
	<title>HomePage</title>
	<defs>
		<linearGradient id="grd1" gradientUnits="userSpaceOnUse"  x1="1.886" y1="42.358" x2="177.567" y2="26.793">
			<stop offset="0" stop-color="#5bdb5b"  />
			<stop offset="0.251" stop-color="#49d695"  />
			<stop offset="0.656" stop-color="#0d569e"  />
			<stop offset="1" stop-color="#114b8c"  />
		</linearGradient>
	</defs>
	<style>
		tspan { white-space:pre }
		.shp0 { fill: url(#grd1) } 
	</style>
	<g id="HomePage">
		<g id="Group 685">
			<g id="right-drawn-arrow">
				<path id="Path 12275" fill-rule="evenodd" class="shp0" d="M171.06 32.22C164.43 36.68 156.99 40.03 150 43.73C149.12 44.25 147.92 43.31 147.82 42.51C147.38 37.83 146.64 32.91 147.57 28.33L147.42 28.22C130.21 12.6 100.38 14.37 78.91 15.92C54.22 17.6 28.64 23.17 8.55 38.09C6.38 40.26 4.09 42.57 2.1 45.11C1.17 46.31 -0.48 45.02 0.3 43.71C0.66 43.26 1.01 42.81 1.36 42.36C0.76 41.89 0.66 41.09 1.24 40.34C2.68 38.81 4.42 37.52 6 36.11C38.9 -3.53 109.85 -11.02 151.36 17.31C151.88 13.86 152.68 10.38 153.05 6.82C153.12 5.18 155.14 5.07 156.07 6.04C162.73 12.94 166.66 21.79 171.45 29.87C171.93 30.49 172.06 31.55 171.06 32.22ZM155.67 10.55C155.05 13.2 154.13 15.62 153.66 18.38C153.37 19.36 152.46 19.61 151.89 19.41C151.54 19.86 151 19.93 150.44 19.72C109.98 -2.24 61.87 -0.53 25.24 24.13C42.45 16.61 62.12 13.65 80.24 12.37C93.52 11.42 106.67 11.56 119.74 13.34C129.94 14.8 141.69 17.96 147.79 26.82C148.28 25.27 150.54 26.07 150.44 27.44C150.4 31.51 150.47 35.42 150.81 39.3C156.53 36.3 162.41 33.41 167.8 29.91C163.89 23.49 160.46 16.46 155.67 10.55Z" />
			</g>
		</g>
	</g>
</svg>