<svg version="1.2" baseProfile="tiny-ps" xmlns="http://www.w3.org/2000/svg" viewBox="0 0 81 81" width="81" height="81">
	<title>HomePage</title>
	<style>
		tspan { white-space:pre }
		.shp0 { fill: #114b8c } 
	</style>
	<g id="HomePage">
		<g id="Group 685">
			<g id="Group 680">
				<g id="statistics" style="opacity: 0.22">
					<path id="Path 12313" class="shp0" d="M12.42 37.8C14.3 37.8 16.01 37.04 17.27 35.83L24.19 39.29C24.15 39.57 24.1 39.84 24.1 40.14C24.1 44 27.24 47.14 31.11 47.14C34.97 47.14 38.12 44 38.12 40.14C38.12 39.06 37.85 38.05 37.41 37.13L46.79 27.75C47.71 28.19 48.72 28.46 49.8 28.46C53.66 28.46 56.8 25.31 56.8 21.45C56.8 20.72 56.66 20.03 56.45 19.37L64.6 13.26C65.72 14 67.05 14.44 68.48 14.44C72.35 14.44 75.49 11.3 75.49 7.43C75.49 3.57 72.35 0.42 68.48 0.42C64.62 0.42 61.48 3.57 61.48 7.43C61.48 8.16 61.62 8.85 61.83 9.51L53.68 15.62C52.56 14.88 51.23 14.44 49.8 14.44C45.93 14.44 42.79 17.58 42.79 21.45C42.79 22.53 43.05 23.54 43.49 24.45L34.11 33.83C33.2 33.39 32.19 33.13 31.11 33.13C29.22 33.13 27.52 33.88 26.26 35.1L19.34 31.64C19.38 31.36 19.43 31.08 19.43 30.79C19.43 26.93 16.28 23.78 12.42 23.78C8.56 23.78 5.41 26.93 5.41 30.79C5.41 34.66 8.56 37.8 12.42 37.8L12.42 37.8Z" />
					<path id="Path 12314" class="shp0" d="M77.98 75.49L75.49 75.49L75.49 26.12C75.49 24.83 74.45 23.78 73.16 23.78L63.81 23.78C62.52 23.78 61.48 24.83 61.48 26.12L61.48 75.49L56.8 75.49L56.8 40.14C56.8 38.84 55.76 37.8 54.47 37.8L45.12 37.8C43.83 37.8 42.79 38.84 42.79 40.14L42.79 75.49L38.12 75.49L38.12 58.82C38.12 57.53 37.07 56.49 35.78 56.49L26.44 56.49C25.14 56.49 24.1 57.53 24.1 58.82L24.1 75.49L19.43 75.49L19.43 49.48C19.43 48.19 18.38 47.14 17.09 47.14L7.75 47.14C6.46 47.14 5.41 48.19 5.41 49.48L5.41 75.49L2.92 75.49C1.63 75.49 0.58 76.53 0.58 77.82C0.58 79.11 1.63 80.16 2.92 80.16L77.98 80.16C79.27 80.16 80.32 79.11 80.32 77.82C80.32 76.53 79.27 75.49 77.98 75.49Z" />
				</g>
			</g>
		</g>
	</g>
</svg>